<mxfile host="app.diagrams.net" modified="2020-10-02T09:10:21.255Z" agent="5.0 (Windows NT 10.0; Win64; x64) AppleWebKit/537.36 (KHTML, like Gecko) Chrome/85.0.4183.121 Safari/537.36" etag="UggtZ4APzEh2IfFKpsmz" version="13.7.7" type="github">
  <diagram name="Page-1" id="82e54ff1-d628-8f03-85c4-9753963a91cd">
    <mxGraphModel dx="1038" dy="548" grid="1" gridSize="10" guides="1" tooltips="1" connect="1" arrows="1" fold="1" page="1" pageScale="1" pageWidth="1100" pageHeight="850" background="#ffffff" math="0" shadow="0">
      <root>
        <mxCell id="0" />
        <mxCell id="1" parent="0" />
        <mxCell id="4ec97bd9e5d20128-1" value="" style="line;strokeWidth=2;html=1;fillColor=none;fontSize=28;fontColor=#004D99;strokeColor=#004D99;" parent="1" vertex="1">
          <mxGeometry x="40" y="400" width="1000" height="10" as="geometry" />
        </mxCell>
        <mxCell id="4ec97bd9e5d20128-6" value="&lt;span&gt;Data preparation&lt;/span&gt;" style="shape=offPageConnector;whiteSpace=wrap;html=1;fontSize=15;fontColor=#FFFFFF;size=0.5093750000000015;verticalAlign=top;strokeColor=none;fillColor=#00008B;" parent="1" vertex="1">
          <mxGeometry x="573" y="340" width="160" height="40" as="geometry" />
        </mxCell>
        <mxCell id="4ec97bd9e5d20128-7" value="&lt;span&gt;Files structure &lt;br&gt;verifying&lt;/span&gt;" style="shape=offPageConnector;whiteSpace=wrap;html=1;fontSize=15;fontColor=#FFFFFF;size=0.4178571428571445;flipV=1;verticalAlign=bottom;strokeColor=none;spacingBottom=4;fillColor=#00008B;" parent="1" vertex="1">
          <mxGeometry x="347" y="425" width="163" height="55" as="geometry" />
        </mxCell>
        <mxCell id="4ec97bd9e5d20128-8" value="&lt;span&gt;Data Analysis&lt;/span&gt;" style="shape=offPageConnector;whiteSpace=wrap;html=1;fontSize=15;fontColor=#FFFFFF;size=0.4178571428571445;flipV=1;verticalAlign=bottom;strokeColor=none;spacingBottom=4;fillColor=#00008B;" parent="1" vertex="1">
          <mxGeometry x="800" y="425" width="160" height="35" as="geometry" />
        </mxCell>
        <mxCell id="4ec97bd9e5d20128-9" value="" style="ellipse;whiteSpace=wrap;html=1;fillColor=#61BAFF;fontSize=28;fontColor=#004D99;strokeWidth=3;strokeColor=#004D99;" parent="1" vertex="1">
          <mxGeometry x="190" y="395" width="20" height="20" as="geometry" />
        </mxCell>
        <mxCell id="4ec97bd9e5d20128-10" value="" style="ellipse;whiteSpace=wrap;html=1;fillColor=#61BAFF;fontSize=28;fontColor=#004D99;strokeWidth=3;strokeColor=#004D99;" parent="1" vertex="1">
          <mxGeometry x="417" y="395" width="20" height="20" as="geometry" />
        </mxCell>
        <mxCell id="4ec97bd9e5d20128-11" value="" style="ellipse;whiteSpace=wrap;html=1;fillColor=#61BAFF;fontSize=28;fontColor=#004D99;strokeWidth=3;strokeColor=#004D99;" parent="1" vertex="1">
          <mxGeometry x="643" y="395" width="20" height="20" as="geometry" />
        </mxCell>
        <mxCell id="4ec97bd9e5d20128-13" value="" style="ellipse;whiteSpace=wrap;html=1;fillColor=#61BAFF;fontSize=28;fontColor=#004D99;strokeWidth=3;strokeColor=#004D99;" parent="1" vertex="1">
          <mxGeometry x="870" y="395" width="20" height="20" as="geometry" />
        </mxCell>
        <mxCell id="4ec97bd9e5d20128-14" value="&lt;h1&gt;Files&lt;/h1&gt;&lt;ul style=&quot;font-size: 18px&quot;&gt;&lt;li style=&quot;text-align: left&quot;&gt;Command fIle&lt;/li&gt;&lt;li style=&quot;text-align: left&quot;&gt;Transport file&amp;nbsp;&lt;/li&gt;&lt;li style=&quot;text-align: left&quot;&gt;Clients file&lt;/li&gt;&lt;/ul&gt;&lt;p&gt;&lt;/p&gt;" style="text;html=1;spacing=5;spacingTop=-20;whiteSpace=wrap;overflow=hidden;strokeColor=none;strokeWidth=3;fontSize=13;fontColor=#000000;align=center;rounded=1;fillColor=#D4E1F5;" parent="1" vertex="1">
          <mxGeometry x="93" y="430" width="215" height="130" as="geometry" />
        </mxCell>
        <mxCell id="4ec97bd9e5d20128-16" value="&lt;h1&gt;Type&lt;/h1&gt;&lt;div style=&quot;font-size: 18px&quot;&gt;&lt;ul&gt;&lt;li style=&quot;text-align: left&quot;&gt;Transport order&lt;/li&gt;&lt;li style=&quot;text-align: left&quot;&gt;Logistic order&lt;/li&gt;&lt;li style=&quot;text-align: left&quot;&gt;Transport pricing&lt;/li&gt;&lt;li style=&quot;text-align: left&quot;&gt;Logistic pricing&lt;/li&gt;&lt;li style=&quot;text-align: left&quot;&gt;Customers&lt;/li&gt;&lt;/ul&gt;&lt;/div&gt;" style="text;html=1;spacing=5;spacingTop=-20;whiteSpace=wrap;overflow=hidden;strokeColor=none;strokeWidth=3;fontSize=13;fontColor=#000000;align=center;rounded=1;fillColor=#D4E1F5;" parent="1" vertex="1">
          <mxGeometry x="319" y="210" width="215" height="160" as="geometry" />
        </mxCell>
        <mxCell id="4ec97bd9e5d20128-17" value="&lt;h1&gt;Set of jobs&lt;/h1&gt;&lt;h1 style=&quot;font-size: 18px&quot;&gt;&lt;div style=&quot;text-align: left&quot;&gt;&lt;ol&gt;&lt;li&gt;&lt;span style=&quot;font-weight: normal&quot;&gt;Data cleansing&amp;nbsp;&lt;/span&gt;&lt;/li&gt;&lt;li&gt;&lt;span style=&quot;font-weight: normal&quot;&gt;Data transformation&lt;/span&gt;&lt;/li&gt;&lt;li&gt;&lt;span style=&quot;font-weight: normal&quot;&gt;Data reduction&lt;/span&gt;&lt;/li&gt;&lt;/ol&gt;&lt;/div&gt;&lt;/h1&gt;&lt;div&gt;&lt;br&gt;&lt;/div&gt;" style="text;html=1;spacing=5;spacingTop=-20;whiteSpace=wrap;overflow=hidden;strokeColor=none;strokeWidth=3;fontSize=13;fontColor=#000000;align=center;rounded=1;fillColor=#D4E1F5;" parent="1" vertex="1">
          <mxGeometry x="545" y="430" width="215" height="130" as="geometry" />
        </mxCell>
        <mxCell id="4ec97bd9e5d20128-18" value="&lt;h1&gt;Prices calculation&lt;/h1&gt;&lt;p&gt;&lt;font style=&quot;font-size: 18px&quot;&gt;Spark SQL operations on data&lt;/font&gt;&lt;/p&gt;" style="text;html=1;spacing=5;spacingTop=-20;whiteSpace=wrap;overflow=hidden;strokeColor=none;strokeWidth=3;fontSize=13;fontColor=#000000;align=center;rounded=1;fillColor=#D4E1F5;" parent="1" vertex="1">
          <mxGeometry x="773" y="250" width="247" height="120" as="geometry" />
        </mxCell>
        <mxCell id="h6Vtb4DhUDZphpeRiNJc-3" value="&lt;span&gt;Data extraction&lt;/span&gt;" style="shape=offPageConnector;whiteSpace=wrap;html=1;fontSize=15;fontColor=#FFFFFF;size=0.5093750000000015;verticalAlign=top;strokeColor=none;fillColor=#00008B;" vertex="1" parent="1">
          <mxGeometry x="120" y="340" width="160" height="40" as="geometry" />
        </mxCell>
      </root>
    </mxGraphModel>
  </diagram>
</mxfile>
